<svg xmlns="http://www.w3.org/2000/svg" xmlns:xlink="http://www.w3.org/1999/xlink"
    viewBox="0 0 512 512" width="512" height="512" preserveAspectRatio="xMidYMid meet"
    style="width: 100%; height: 100%; transform: translate3d(0px, 0px, 0px); content-visibility: visible;">
    <defs>
        <clipPath id="__lottie_element_2">
            <rect width="512" height="512" x="0" y="0"></rect>
        </clipPath>
        <clipPath id="__lottie_element_4">
            <path d="M0,0 L512,0 L512,512 L0,512z"></path>
        </clipPath>
        <linearGradient id="__lottie_element_11" spreadMethod="pad" gradientUnits="userSpaceOnUse"
            x1="-237.2010040283203" y1="44.72999954223633" x2="-64.52799987792969"
            y2="-6.043000221252441">
            <stop offset="0%" stop-color="rgb(0,165,237)"></stop>
            <stop offset="0%" stop-color="rgb(0,165,237)"></stop>
            <stop offset="0%" stop-color="rgb(0,165,237)"></stop>
            <stop offset="0%" stop-color="rgb(0,165,237)"></stop>
            <stop offset="0%" stop-color="rgb(0,165,237)"></stop>
            <stop offset="3%" stop-color="rgb(128,210,246)"></stop>
            <stop offset="50%" stop-color="rgb(255,255,255)"></stop>
            <stop offset="83%" stop-color="rgb(128,210,246)"></stop>
            <stop offset="100%" stop-color="rgb(0,165,237)"></stop>
        </linearGradient>
        <linearGradient id="__lottie_element_15" spreadMethod="pad" gradientUnits="userSpaceOnUse"
            x1="-378.00201416015625" y1="84.80500030517578" x2="-153.9010009765625"
            y2="18.652000427246094">
            <stop offset="0%" stop-color="rgb(0,165,237)"></stop>
            <stop offset="0%" stop-color="rgb(0,165,237)"></stop>
            <stop offset="0%" stop-color="rgb(0,165,237)"></stop>
            <stop offset="0%" stop-color="rgb(0,165,237)"></stop>
            <stop offset="0%" stop-color="rgb(0,165,237)"></stop>
            <stop offset="3%" stop-color="rgb(128,210,246)"></stop>
            <stop offset="50%" stop-color="rgb(255,255,255)"></stop>
            <stop offset="83%" stop-color="rgb(128,210,246)"></stop>
            <stop offset="100%" stop-color="rgb(0,165,237)"></stop>
        </linearGradient>
        <linearGradient id="__lottie_element_19" spreadMethod="pad" gradientUnits="userSpaceOnUse"
            x1="-139.8991241455078" y1="22.00000762939453" x2="57.85285949707031"
            y2="-49.58960723876953">
            <stop offset="0%" stop-color="rgb(0,165,237)"></stop>
            <stop offset="0%" stop-color="rgb(0,165,237)"></stop>
            <stop offset="0%" stop-color="rgb(0,165,237)"></stop>
            <stop offset="0%" stop-color="rgb(0,165,237)"></stop>
            <stop offset="0%" stop-color="rgb(0,165,237)"></stop>
            <stop offset="3%" stop-color="rgb(128,210,246)"></stop>
            <stop offset="50%" stop-color="rgb(255,255,255)"></stop>
            <stop offset="83%" stop-color="rgb(128,210,246)"></stop>
            <stop offset="100%" stop-color="rgb(0,165,237)"></stop>
        </linearGradient>
    </defs>
    <g clip-path="url(#__lottie_element_2)">
        <g clip-path="url(#__lottie_element_4)" style="display: block;"
            transform="matrix(1,0,0,1,0,0)" opacity="1">
            <g style="display: block;"
                transform="matrix(1.100000023841858,0,0,1.100000023841858,263.52960205078125,365.6347961425781)"
                opacity="1">
                <g opacity="1" transform="matrix(1,0,0,1,0,0)">
                    <path fill="rgb(255,213,39)" fill-opacity="1"
                        d=" M-82.69000244140625,-85.6989974975586 C-109.8030014038086,-71.31400299072266 -132.81500244140625,-34.361000061035156 -138.36700439453125,6.889999866485596 C-139.71400451660156,16.89900016784668 -140.0330047607422,27.15999984741211 -139.13299560546875,37.41400146484375 C-134.14100646972656,94.31600189208984 62.715999603271484,93.18800354003906 115.61900329589844,64.49400329589844 C133.81500244140625,54.625 137.72900390625,41.959999084472656 133.5469970703125,17.05699920654297 C129.51699829101562,-6.940999984741211 126.03500366210938,-71.11699676513672 83.08300018310547,-86.55000305175781"></path>
                    <path stroke-linecap="round" stroke-linejoin="round" fill-opacity="0"
                        stroke="rgb(250,144,22)" stroke-opacity="1" stroke-width="10"
                        d=" M-82.69000244140625,-85.6989974975586 C-109.8030014038086,-71.31400299072266 -132.81500244140625,-34.361000061035156 -138.36700439453125,6.889999866485596 C-139.71400451660156,16.89900016784668 -140.0330047607422,27.15999984741211 -139.13299560546875,37.41400146484375 C-134.14100646972656,94.31600189208984 62.715999603271484,93.18800354003906 115.61900329589844,64.49400329589844 C133.81500244140625,54.625 137.72900390625,41.959999084472656 133.5469970703125,17.05699920654297 C129.51699829101562,-6.940999984741211 126.03500366210938,-71.11699676513672 83.08300018310547,-86.55000305175781"></path>
                </g>
            </g>
            <g style="display: block;"
                transform="matrix(1.100000023841858,0,0,1.100000023841858,163.32070922851562,425.2196044921875)"
                opacity="1">
                <g opacity="1" transform="matrix(1,0,0,1,0,0)">
                    <path stroke-linecap="round" stroke-linejoin="round" fill-opacity="0"
                        stroke="rgb(252,238,33)" stroke-opacity="1" stroke-width="8"
                        d=" M18.344999313354492,6.89900016784668 C3.9200000762939453,6.271999835968018 -16.777000427246094,-3.763000011444092 -18.344999313354492,-6.89900016784668"></path>
                </g>
            </g>
            <g style="display: block;"
                transform="matrix(1.100000023841858,0,0,1.100000023841858,254.68560791015625,182.85658264160156)"
                opacity="1">
                <g opacity="1" transform="matrix(1,0,0,1,0,0)">
                    <path fill="rgb(255,213,39)" fill-opacity="1"
                        d=" M-97.18299865722656,113.0479965209961 C-120.96199798583984,95.33100128173828 -135.11900329589844,70.16799926757812 -135.82000732421875,40.316001892089844 C-137.30799865722656,-23.100000381469727 -77.96499633789062,-86.80400085449219 -2.953000068664551,-88.37799835205078 C72.05899810791016,-89.9520034790039 134.33299255371094,-28.802000045776367 135.8209991455078,34.61399841308594 C136.5229949951172,64.5469970703125 123.48899841308594,90.16600036621094 100.85299682617188,108.71499633789062"></path>
                    <path stroke-linecap="round" stroke-linejoin="round" fill-opacity="0"
                        stroke="rgb(250,144,22)" stroke-opacity="1" stroke-width="10"
                        d=" M-97.18299865722656,113.0479965209961 C-120.96199798583984,95.33100128173828 -135.11900329589844,70.16799926757812 -135.82000732421875,40.316001892089844 C-137.30799865722656,-23.100000381469727 -77.96499633789062,-86.80400085449219 -2.953000068664551,-88.37799835205078 C72.05899810791016,-89.9520034790039 134.33299255371094,-28.802000045776367 135.8209991455078,34.61399841308594 C136.5229949951172,64.5469970703125 123.48899841308594,90.16600036621094 100.85299682617188,108.71499633789062"></path>
                </g>
            </g>
            <g style="display: block;"
                transform="matrix(1.100000023841858,0,0,1.100000023841858,408.76922607421875,153.98489379882812)"
                opacity="1">
                <g opacity="1" transform="matrix(1,0,0,1,0,0)">
                    <path stroke-linecap="round" stroke-linejoin="round" fill-opacity="0"
                        stroke="rgb(255,255,255)" stroke-opacity="1" stroke-width="8"
                        d=" M-180.8719940185547,-37.665000915527344 C-203.0679931640625,-31.704999923706055 -221.98500061035156,-15.40999984741211 -233.41400146484375,-0.2840000092983246"></path>
                </g>
            </g>
            <g style="display: block;"
                transform="matrix(1.0517328977584839,-0.3222697675228119,0.3222697675228119,1.0517328977584839,194.3968048095703,206.23377990722656)"
                opacity="1">
                <g opacity="1" transform="matrix(1,0,0,1,0,0)">
                    <path fill="rgb(255,93,31)" fill-opacity="1"
                        d=" M-45.319000244140625,-0.6909999847412109 C-20.275999069213867,-3.190999984741211 -13.482999801635742,-26.680999755859375 -4.5920000076293945,-27.18600082397461 C5.36299991607666,-27.750999450683594 15.902999877929688,-3.5820000171661377 36.736000061035156,-2.8340001106262207 C49.077999114990234,-2.3910000324249268 54.297000885009766,3.308000087738037 53.48400115966797,9.152999877929688 C53.233001708984375,10.95300006866455 52.40999984741211,12.767000198364258 51.047000885009766,14.444999694824219 C48.55799865722656,17.509000778198242 44.26599884033203,20.121999740600586 38.367000579833984,21.375 C-14.243000030517578,32.54499816894531 -34.59400177001953,25.493999481201172 -40.10499954223633,18.070999145507812 C-41.611000061035156,16.042999267578125 -42.007999420166016,13.987000465393066 -41.65399932861328,12.267999649047852 C-55.12900161743164,13.088000297546387 -58.2869987487793,0.6029999852180481 -45.319000244140625,-0.6909999847412109z"></path>
                    <path stroke-linecap="butt" stroke-linejoin="round" fill-opacity="0"
                        stroke="rgb(207,53,2)" stroke-opacity="1" stroke-width="10"
                        d=" M-45.319000244140625,-0.6909999847412109 C-20.275999069213867,-3.190999984741211 -13.482999801635742,-26.680999755859375 -4.5920000076293945,-27.18600082397461 C5.36299991607666,-27.750999450683594 15.902999877929688,-3.5820000171661377 36.736000061035156,-2.8340001106262207 C49.077999114990234,-2.3910000324249268 54.297000885009766,3.308000087738037 53.48400115966797,9.152999877929688 C53.233001708984375,10.95300006866455 52.40999984741211,12.767000198364258 51.047000885009766,14.444999694824219 C48.55799865722656,17.509000778198242 44.26599884033203,20.121999740600586 38.367000579833984,21.375 C-14.243000030517578,32.54499816894531 -34.59400177001953,25.493999481201172 -40.10499954223633,18.070999145507812 C-41.611000061035156,16.042999267578125 -42.007999420166016,13.987000465393066 -41.65399932861328,12.267999649047852 C-55.12900161743164,13.088000297546387 -58.2869987487793,0.6029999852180481 -45.319000244140625,-0.6909999847412109z"></path>
                </g>
            </g>
            <g style="display: block;"
                transform="matrix(1.0517328977584839,-0.3222697675228119,0.3222697675228119,1.0517328977584839,194.3365478515625,199.5679473876953)"
                opacity="0.33">
                <g opacity="1" transform="matrix(1,0,0,1,0,0)">
                    <path stroke-linecap="round" stroke-linejoin="round" fill-opacity="0"
                        stroke="rgb(255,255,255)" stroke-opacity="1" stroke-width="10"
                        d=" M7.086999893188477,4.659999847412109 C2.265000104904175,1.1050000190734863 -2.3510000705718994,-4.258999824523926 -4.519000053405762,-7.827000141143799"></path>
                </g>
            </g>
            <g style="display: block;"
                transform="matrix(1.0517328977584839,-0.3222697675228119,0.3222697675228119,1.0517328977584839,191.01156616210938,221.3932647705078)"
                opacity="1">
                <g opacity="1" transform="matrix(1,0,0,1,0,0)">
                    <path stroke-linecap="round" stroke-linejoin="round" fill-opacity="0"
                        stroke="rgb(125,9,9)" stroke-opacity="1" stroke-width="10"
                        d=" M37.58399963378906,-2.5179998874664307 C3.2190001010894775,6.215000152587891 -22.023000717163086,1.527999997138977 -37.58399963378906,-1.309000015258789"></path>
                </g>
            </g>
            <g style="display: block;"
                transform="matrix(1.0517278909683228,-0.32226818799972534,0.3222697675228119,1.0517328977584839,250.3323211669922,149.30702209472656)"
                opacity="1">
                <g opacity="1" transform="matrix(1,0,0,1,0,0)">
                    <path fill="rgb(0,0,0)" fill-opacity="1"
                        d=" M23.652000427246094,0 C23.652000427246094,15.362000465393066 13.062999725341797,27.815000534057617 0,27.815000534057617 C-13.062999725341797,27.815000534057617 -23.652000427246094,15.362000465393066 -23.652000427246094,0 C-23.652000427246094,-15.362000465393066 -13.062999725341797,-27.815000534057617 0,-27.815000534057617 C13.062999725341797,-27.815000534057617 23.652000427246094,-15.362000465393066 23.652000427246094,0z"></path>
                    <path stroke-linecap="round" stroke-linejoin="round" fill-opacity="0"
                        stroke="rgb(0,0,0)" stroke-opacity="1" stroke-width="0"
                        d=" M23.652000427246094,0 C23.652000427246094,15.362000465393066 13.062999725341797,27.815000534057617 0,27.815000534057617 C-13.062999725341797,27.815000534057617 -23.652000427246094,15.362000465393066 -23.652000427246094,0 C-23.652000427246094,-15.362000465393066 -13.062999725341797,-27.815000534057617 0,-27.815000534057617 C13.062999725341797,-27.815000534057617 23.652000427246094,-15.362000465393066 23.652000427246094,0z"></path>
                </g>
            </g>
            <g style="display: block;"
                transform="matrix(1.0517278909683228,-0.32226818799972534,0.3222697675228119,1.0517328977584839,252.3158721923828,134.4504852294922)"
                opacity="1">
                <g opacity="1" transform="matrix(1,0,0,1,0,0)">
                    <path fill="rgb(255,255,255)" fill-opacity="1"
                        d=" M-5.818999767303467,3.6670000553131104 C-3.6089999675750732,7.552000045776367 0.7879999876022339,9.0600004196167 4.001999855041504,7.034999847412109 C7.216000080108643,5.010000228881836 8.029000282287598,0.21799999475479126 5.818999767303467,-3.6670000553131104 C3.6089999675750732,-7.552000045776367 -0.7879999876022339,-9.0600004196167 -4.001999855041504,-7.034999847412109 C-7.216000080108643,-5.010000228881836 -8.029000282287598,-0.21799999475479126 -5.818999767303467,3.6670000553131104z"></path>
                </g>
            </g>
            <g style="display: block;"
                transform="matrix(0.8701378107070923,0.13137848675251007,-0.16422313451766968,1.0876721143722534,124.12437438964844,187.97938537597656)"
                opacity="1">
                <g opacity="1" transform="matrix(1,0,0,1,0,0)">
                    <path fill="rgb(0,0,0)" fill-opacity="1"
                        d=" M23.652000427246094,0 C23.652000427246094,15.362000465393066 13.062999725341797,27.815000534057617 0,27.815000534057617 C-13.062999725341797,27.815000534057617 -23.652000427246094,15.362000465393066 -23.652000427246094,0 C-23.652000427246094,-15.362000465393066 -13.062999725341797,-27.815000534057617 0,-27.815000534057617 C13.062999725341797,-27.815000534057617 23.652000427246094,-15.362000465393066 23.652000427246094,0z"></path>
                    <path stroke-linecap="round" stroke-linejoin="round" fill-opacity="0"
                        stroke="rgb(0,0,0)" stroke-opacity="1" stroke-width="0"
                        d=" M23.652000427246094,0 C23.652000427246094,15.362000465393066 13.062999725341797,27.815000534057617 0,27.815000534057617 C-13.062999725341797,27.815000534057617 -23.652000427246094,15.362000465393066 -23.652000427246094,0 C-23.652000427246094,-15.362000465393066 -13.062999725341797,-27.815000534057617 0,-27.815000534057617 C13.062999725341797,-27.815000534057617 23.652000427246094,-15.362000465393066 23.652000427246094,0z"></path>
                </g>
            </g>
            <g style="display: block;"
                transform="matrix(0.8701378107070923,0.13137848675251007,-0.16422313451766968,1.0876721143722534,131.1015167236328,175.2549285888672)"
                opacity="1">
                <g opacity="1" transform="matrix(1,0,0,1,0,0)">
                    <path fill="rgb(255,255,255)" fill-opacity="1"
                        d=" M-5.818999767303467,3.6670000553131104 C-3.6089999675750732,7.552000045776367 0.7879999876022339,9.0600004196167 4.001999855041504,7.034999847412109 C7.216000080108643,5.010000228881836 8.029000282287598,0.21799999475479126 5.818999767303467,-3.6670000553131104 C3.6089999675750732,-7.552000045776367 -0.7879999876022339,-9.0600004196167 -4.001999855041504,-7.034999847412109 C-7.216000080108643,-5.010000228881836 -8.029000282287598,-0.21799999475479126 -5.818999767303467,3.6670000553131104z"></path>
                </g>
            </g>
            <g style="display: block;"
                transform="matrix(1.100000023841858,0,0,1.100000023841858,326.7333984375,296.8011779785156)"
                opacity="1">
                <g opacity="1" transform="matrix(1,0,0,1,0,0)">
                    <path fill="rgb(255,213,39)" fill-opacity="1"
                        d=" M-52.92100143432617,47.729000091552734 C-23.393999099731445,12.45300006866455 -20.58481216430664,-53.45344543457031 -39.355812072753906,-54.896446228027344 C-49.322811126708984,-55.662445068359375 -67.4229965209961,-13.42300033569336 -96.24600219726562,-2.0480000972747803"></path>
                    <path stroke-linecap="round" stroke-linejoin="round" fill-opacity="0"
                        stroke="rgb(250,144,22)" stroke-opacity="1" stroke-width="10"
                        d=" M-52.92100143432617,47.729000091552734 C-23.393999099731445,12.45300006866455 -20.58481216430664,-53.45344543457031 -39.355812072753906,-54.896446228027344 C-49.322811126708984,-55.662445068359375 -67.4229965209961,-13.42300033569336 -96.24600219726562,-2.0480000972747803"></path>
                </g>
            </g>
            <g style="display: block;"
                transform="matrix(1.002772569656372,0.4521583020687103,-0.4521583020687103,1.002772569656372,147.75790405273438,366.64129638671875)"
                opacity="1">
                <g opacity="1" transform="matrix(1,0,0,1,0,0)">
                    <path stroke-linecap="round" stroke-linejoin="round" fill-opacity="0"
                        stroke="rgb(255,255,255)" stroke-opacity="1" stroke-width="8"
                        d=" M63.54600143432617,-131.98199462890625 C61.62099838256836,-121.99600219726562 57.650001525878906,-106.88300323486328 49.999000549316406,-93.51399993896484"></path>
                </g>
            </g>
            <g style="display: block;"
                transform="matrix(1.100000023841858,0,0,1.100000023841858,396.61090087890625,383.05108642578125)"
                opacity="1">
                <g opacity="1" transform="matrix(1,0,0,1,0,0)">
                    <path fill="rgb(255,213,39)" fill-opacity="1"
                        d=" M3.7760000228881836,3.7109999656677246 C6.716000080108643,-29.136999130249023 32.16999816894531,-36.8650016784668 32.11000061035156,-47.4640007019043 C32.06100082397461,-55.983001708984375 -33.04100036621094,-49.59199905395508 -53.04100036621094,-33.654998779296875"></path>
                    <path stroke-linecap="round" stroke-linejoin="round" fill-opacity="0"
                        stroke="rgb(250,144,22)" stroke-opacity="1" stroke-width="10"
                        d=" M3.7760000228881836,3.7109999656677246 C6.716000080108643,-29.136999130249023 32.16999816894531,-36.8650016784668 32.11000061035156,-47.4640007019043 C32.06100082397461,-55.983001708984375 -33.04100036621094,-49.59199905395508 -53.04100036621094,-33.654998779296875"></path>
                </g>
            </g>
            <g style="display: block;"
                transform="matrix(1.002772569656372,0.4521583020687103,-0.4521583020687103,1.002772569656372,147.75680541992188,366.64019775390625)"
                opacity="1">
                <g opacity="1" transform="matrix(1,0,0,1,0,0)">
                    <path stroke-linecap="round" stroke-linejoin="round" fill-opacity="0"
                        stroke="rgb(252,238,33)" stroke-opacity="1" stroke-width="8"
                        d=" M208.29299926757812,-119.88800048828125 C201.58900451660156,-111.10800170898438 199.7469940185547,-101.77899932861328 203.09300231933594,-87.73300170898438"></path>
                </g>
            </g>
            <g style="display: block;"
                transform="matrix(0.9997765421867371,-0.02113872580230236,0.02113872580230236,0.9997765421867371,306.24871826171875,-71.73345947265625)"
                opacity="1">
                <g opacity="1" transform="matrix(1,0,0,1,0,0)">
                    <g opacity="1" transform="matrix(1,0,0,1,0,0)">
                        <g opacity="1"
                            transform="matrix(1,0,0,1,39.185001373291016,278.3529968261719)">
                            <path fill="rgb(0,63,91)" fill-opacity="1"
                                d=" M81.41515350341797,104.5621566772461 C81.41515350341797,104.5621566772461 69.10137939453125,-106.26996612548828 69.10137939453125,-106.26996612548828 C68.4361343383789,-117.59496307373047 55.099586486816406,-130.82540893554688 44.73689270019531,-130.82540893554688 C44.73689270019531,-130.82540893554688 -32.76483917236328,-130.89317321777344 -32.76483917236328,-130.89317321777344 C-37.21644592285156,-130.89317321777344 -41.20674133300781,-129.19818115234375 -44.2574348449707,-126.3681869506836 C-46.088043212890625,-124.6701889038086 -55.290191650390625,-116.19918823242188 -57.352699279785156,-112.81718444824219 C-59.41520690917969,-109.43518829345703 -60.506324768066406,-105.2681884765625 -60.24086380004883,-100.75718688964844 C-60.24086380004883,-100.75718688964844 -47.60304641723633,110.63463592529297 -47.60304641723633,110.63463592529297 C-43.78287124633789,123.39030456542969 -32.92176055908203,131.21524047851562 -22.55906867980957,131.21524047851562 C-22.55906867980957,131.21524047851562 58.405921936035156,131.1347198486328 58.405921936035156,131.1347198486328 C61.7736701965332,131.1347198486328 64.41954040527344,130.2972869873047 67.03482818603516,128.56886291503906 C69.38590240478516,127.01560974121094 75.66670989990234,120.65814208984375 77.67566680908203,117.89915466308594 C80.283935546875,114.31715393066406 81.71421813964844,109.6591567993164 81.41515350341797,104.5621566772461z"></path>
                            <path stroke-linecap="round" stroke-linejoin="round" fill-opacity="0"
                                stroke="rgb(0,63,91)" stroke-opacity="1" stroke-width="10"
                                d=" M81.41515350341797,104.5621566772461 C81.41515350341797,104.5621566772461 69.10137939453125,-106.26996612548828 69.10137939453125,-106.26996612548828 C68.4361343383789,-117.59496307373047 55.099586486816406,-130.82540893554688 44.73689270019531,-130.82540893554688 C44.73689270019531,-130.82540893554688 -32.76483917236328,-130.89317321777344 -32.76483917236328,-130.89317321777344 C-37.21644592285156,-130.89317321777344 -41.20674133300781,-129.19818115234375 -44.2574348449707,-126.3681869506836 C-46.088043212890625,-124.6701889038086 -55.290191650390625,-116.19918823242188 -57.352699279785156,-112.81718444824219 C-59.41520690917969,-109.43518829345703 -60.506324768066406,-105.2681884765625 -60.24086380004883,-100.75718688964844 C-60.24086380004883,-100.75718688964844 -47.60304641723633,110.63463592529297 -47.60304641723633,110.63463592529297 C-43.78287124633789,123.39030456542969 -32.92176055908203,131.21524047851562 -22.55906867980957,131.21524047851562 C-22.55906867980957,131.21524047851562 58.405921936035156,131.1347198486328 58.405921936035156,131.1347198486328 C61.7736701965332,131.1347198486328 64.41954040527344,130.2972869873047 67.03482818603516,128.56886291503906 C69.38590240478516,127.01560974121094 75.66670989990234,120.65814208984375 77.67566680908203,117.89915466308594 C80.283935546875,114.31715393066406 81.71421813964844,109.6591567993164 81.41515350341797,104.5621566772461z"></path>
                        </g>
                        <g opacity="1"
                            transform="matrix(1,0,0,1,44.369998931884766,273.5379943847656)">
                            <path fill="url(#__lottie_element_19)" fill-opacity="1"
                                d=" M58.43803405761719,126.13594055175781 C58.43803405761719,126.13594055175781 -31.05696678161621,126.13594055175781 -31.05696678161621,126.13594055175781 C-42.38196563720703,126.13594055175781 -52.108978271484375,116.95553588867188 -52.78441619873047,105.63053131103516 C-52.78441619873047,105.63053131103516 -65.60739135742188,-105.7563705444336 -65.60739135742188,-105.7563705444336 C-66.28282928466797,-117.08136749267578 -57.650428771972656,-126.26136779785156 -46.32543182373047,-126.26136779785156 C-46.32543182373047,-126.26136779785156 43.16916275024414,-126.26136779785156 43.16916275024414,-126.26136779785156 C54.49415969848633,-126.26136779785156 64.22117614746094,-117.08136749267578 64.8966064453125,-105.7563705444336 C64.8966064453125,-105.7563705444336 77.7199935913086,105.63053131103516 77.7199935913086,105.63053131103516 C78.39543151855469,116.95553588867188 69.76303100585938,126.13594055175781 58.43803405761719,126.13594055175781z"></path>
                            <path stroke-linecap="round" stroke-linejoin="round" fill-opacity="0"
                                stroke="rgb(0,63,91)" stroke-opacity="1" stroke-width="10"
                                d=" M58.43803405761719,126.13594055175781 C58.43803405761719,126.13594055175781 -31.05696678161621,126.13594055175781 -31.05696678161621,126.13594055175781 C-42.38196563720703,126.13594055175781 -52.108978271484375,116.95553588867188 -52.78441619873047,105.63053131103516 C-52.78441619873047,105.63053131103516 -65.60739135742188,-105.7563705444336 -65.60739135742188,-105.7563705444336 C-66.28282928466797,-117.08136749267578 -57.650428771972656,-126.26136779785156 -46.32543182373047,-126.26136779785156 C-46.32543182373047,-126.26136779785156 43.16916275024414,-126.26136779785156 43.16916275024414,-126.26136779785156 C54.49415969848633,-126.26136779785156 64.22117614746094,-117.08136749267578 64.8966064453125,-105.7563705444336 C64.8966064453125,-105.7563705444336 77.7199935913086,105.63053131103516 77.7199935913086,105.63053131103516 C78.39543151855469,116.95553588867188 69.76303100585938,126.13594055175781 58.43803405761719,126.13594055175781z"></path>
                        </g>
                        <g opacity="1"
                            transform="matrix(1,0,0,1,30.280000686645508,163.3820037841797)">
                            <path fill="rgb(0,0,0)" fill-opacity="1"
                                d=" M28.69675064086914,-6.168957233428955 C28.69675064086914,-6.168957233428955 -5.251657962799072,-6.168957233428955 -5.251657962799072,-6.168957233428955 C-8.78565788269043,-6.168957233428955 -11.489046096801758,-3.292548656463623 -11.278569221496582,0.24145129323005676 C-11.068092346191406,3.775451183319092 -8.021479606628418,6.651042938232422 -4.487480163574219,6.651042938232422 C-4.487480163574219,6.651042938232422 29.460927963256836,6.651042938232422 29.460927963256836,6.651042938232422 C32.994930267333984,6.651042938232422 35.69831848144531,3.775451183319092 35.48783874511719,0.24145129323005676 C35.27736282348633,-3.292548656463623 32.230751037597656,-6.168957233428955 28.69675064086914,-6.168957233428955z"></path>
                        </g>
                    </g>
                    <g opacity="1" transform="matrix(1,0,0,1,-35.89400100708008,208.38800048828125)">
                        <path fill="rgb(0,143,202)" fill-opacity="1"
                            d=" M13.602137565612793,13.813745498657227 C13.602137565612793,13.813745498657227 11.932051658630371,-13.805574417114258 11.932051658630371,-13.805574417114258"></path>
                        <path stroke-linecap="round" stroke-linejoin="round" fill-opacity="0"
                            stroke="rgb(0,-12,-46)" stroke-opacity="1" stroke-width="10"
                            d=" M13.602137565612793,13.813745498657227 C13.602137565612793,13.813745498657227 11.932051658630371,-13.805574417114258 11.932051658630371,-13.805574417114258"></path>
                    </g>
                    <g opacity="1" transform="matrix(1,0,0,1,-30.82900047302246,253.33700561523438)">
                        <path fill="rgb(0,143,202)" fill-opacity="1"
                            d=" M11.243718147277832,15.442242622375488 C11.243718147277832,15.442242622375488 9.387906074523926,-15.626089096069336 9.387906074523926,-15.626089096069336"></path>
                        <path stroke-linecap="round" stroke-linejoin="round" fill-opacity="0"
                            stroke="rgb(0,-12,-46)" stroke-opacity="1" stroke-width="10"
                            d=" M11.243718147277832,15.442242622375488 C11.243718147277832,15.442242622375488 9.387906074523926,-15.626089096069336 9.387906074523926,-15.626089096069336"></path>
                    </g>
                </g>
                <g opacity="1" transform="matrix(1,0,0,1,40.65700149536133,268.82598876953125)"></g>
            </g>
            <g style="display: block;" transform="matrix(0,0,0,0,499.3089904785156,332.22900390625)"
                opacity="1">
                <g opacity="1" transform="matrix(1,0,0,1,344.5530090332031,262.7040100097656)">
                    <path fill="url(#__lottie_element_15)" fill-opacity="1"
                        d=" M90.55799865722656,99.0770034790039 C90.55799865722656,99.0770034790039 -136.7030029296875,99.0770034790039 -136.7030029296875,99.0770034790039 C-145.33299255371094,99.0770034790039 -153.69200134277344,92.08100128173828 -155.3730010986328,83.45099639892578 C-155.3730010986328,83.45099639892578 -187.64100646972656,-82.23799896240234 -187.64100646972656,-82.23799896240234 C-189.32200622558594,-90.86799621582031 -183.68800354003906,-97.86499786376953 -175.05799865722656,-97.86499786376953 C-175.05799865722656,-97.86499786376953 52.20399856567383,-97.86499786376953 52.20399856567383,-97.86499786376953 C60.83399963378906,-97.86499786376953 69.19300079345703,-90.86799621582031 70.8740005493164,-82.23799896240234 C70.8740005493164,-82.23799896240234 103.14199829101562,83.45099639892578 103.14199829101562,83.45099639892578 C104.822998046875,92.08100128173828 99.18800354003906,99.0770034790039 90.55799865722656,99.0770034790039z"></path>
                    <path stroke-linecap="round" stroke-linejoin="round" fill-opacity="0"
                        stroke="rgb(0,0,0)" stroke-opacity="1" stroke-width="10"
                        d=" M90.55799865722656,99.0770034790039 C90.55799865722656,99.0770034790039 -136.7030029296875,99.0770034790039 -136.7030029296875,99.0770034790039 C-145.33299255371094,99.0770034790039 -153.69200134277344,92.08100128173828 -155.3730010986328,83.45099639892578 C-155.3730010986328,83.45099639892578 -187.64100646972656,-82.23799896240234 -187.64100646972656,-82.23799896240234 C-189.32200622558594,-90.86799621582031 -183.68800354003906,-97.86499786376953 -175.05799865722656,-97.86499786376953 C-175.05799865722656,-97.86499786376953 52.20399856567383,-97.86499786376953 52.20399856567383,-97.86499786376953 C60.83399963378906,-97.86499786376953 69.19300079345703,-90.86799621582031 70.8740005493164,-82.23799896240234 C70.8740005493164,-82.23799896240234 103.14199829101562,83.45099639892578 103.14199829101562,83.45099639892578 C104.822998046875,92.08100128173828 99.18800354003906,99.0770034790039 90.55799865722656,99.0770034790039z"></path>
                </g>
                <g opacity="1" transform="matrix(1,0,0,1,314.1510009765625,376.3269958496094)">
                    <path fill="rgb(224,216,203)" fill-opacity="1"
                        d=" M-99.73400115966797,14.951000213623047 C-99.73400115966797,14.951000213623047 121.73400115966797,15.187000274658203 121.73400115966797,15.187000274658203 C132.20700073242188,15.187000274658203 140.69700622558594,6.697000026702881 140.69700622558594,-3.7760000228881836 C140.69700622558594,-3.7760000228881836 140.69700622558594,-5.748000144958496 140.69700622558594,-5.748000144958496 C140.69700622558594,-10.92199993133545 136.5019989013672,-15.116999626159668 131.3280029296875,-15.116999626159668 C131.3280029296875,-15.116999626159668 -109.3280029296875,-15.354000091552734 -109.3280029296875,-15.354000091552734 C-114.50199890136719,-15.354000091552734 -118.6969985961914,-11.159000396728516 -118.6969985961914,-5.985000133514404 C-118.6969985961914,-5.985000133514404 -118.6969985961914,-4.01200008392334 -118.6969985961914,-4.01200008392334 C-118.6969985961914,6.460999965667725 -110.20700073242188,14.951000213623047 -99.73400115966797,14.951000213623047z"></path>
                    <path stroke-linecap="round" stroke-linejoin="round" fill-opacity="0"
                        stroke="rgb(153,153,153)" stroke-opacity="1" stroke-width="10"
                        d=" M-99.73400115966797,14.951000213623047 C-99.73400115966797,14.951000213623047 121.73400115966797,15.187000274658203 121.73400115966797,15.187000274658203 C132.20700073242188,15.187000274658203 140.69700622558594,6.697000026702881 140.69700622558594,-3.7760000228881836 C140.69700622558594,-3.7760000228881836 140.69700622558594,-5.748000144958496 140.69700622558594,-5.748000144958496 C140.69700622558594,-10.92199993133545 136.5019989013672,-15.116999626159668 131.3280029296875,-15.116999626159668 C131.3280029296875,-15.116999626159668 -109.3280029296875,-15.354000091552734 -109.3280029296875,-15.354000091552734 C-114.50199890136719,-15.354000091552734 -118.6969985961914,-11.159000396728516 -118.6969985961914,-5.985000133514404 C-118.6969985961914,-5.985000133514404 -118.6969985961914,-4.01200008392334 -118.6969985961914,-4.01200008392334 C-118.6969985961914,6.460999965667725 -110.20700073242188,14.951000213623047 -99.73400115966797,14.951000213623047z"></path>
                </g>
                <g opacity="1" transform="matrix(1,0,0,1,294.82000732421875,376.3269958496094)">
                    <path fill="rgb(224,216,203)" fill-opacity="1"
                        d=" M-39.402000427246094,15.152000427246094 C-39.402000427246094,15.152000427246094 173.40199279785156,15.152000427246094 173.40199279785156,15.152000427246094 C183.875,15.152000427246094 192.36500549316406,6.6620001792907715 192.36500549316406,-3.811000108718872 C192.36500549316406,-3.811000108718872 192.36500549316406,-5.7829999923706055 192.36500549316406,-5.7829999923706055 C192.36500549316406,-10.956999778747559 188.17100524902344,-15.152000427246094 182.9969940185547,-15.152000427246094 C182.9969940185547,-15.152000427246094 -48.99700164794922,-15.152000427246094 -48.99700164794922,-15.152000427246094 C-54.17100143432617,-15.152000427246094 -58.3650016784668,-10.956999778747559 -58.3650016784668,-5.7829999923706055 C-58.3650016784668,-5.7829999923706055 -58.3650016784668,-3.811000108718872 -58.3650016784668,-3.811000108718872 C-58.3650016784668,6.6620001792907715 -49.875,15.152000427246094 -39.402000427246094,15.152000427246094z"></path>
                    <path stroke-linecap="round" stroke-linejoin="round" fill-opacity="0"
                        stroke="rgb(153,153,153)" stroke-opacity="1" stroke-width="10"
                        d=" M-39.402000427246094,15.152000427246094 C-39.402000427246094,15.152000427246094 173.40199279785156,15.152000427246094 173.40199279785156,15.152000427246094 C183.875,15.152000427246094 192.36500549316406,6.6620001792907715 192.36500549316406,-3.811000108718872 C192.36500549316406,-3.811000108718872 192.36500549316406,-5.7829999923706055 192.36500549316406,-5.7829999923706055 C192.36500549316406,-10.956999778747559 188.17100524902344,-15.152000427246094 182.9969940185547,-15.152000427246094 C182.9969940185547,-15.152000427246094 -48.99700164794922,-15.152000427246094 -48.99700164794922,-15.152000427246094 C-54.17100143432617,-15.152000427246094 -58.3650016784668,-10.956999778747559 -58.3650016784668,-5.7829999923706055 C-58.3650016784668,-5.7829999923706055 -58.3650016784668,-3.811000108718872 -58.3650016784668,-3.811000108718872 C-58.3650016784668,6.6620001792907715 -49.875,15.152000427246094 -39.402000427246094,15.152000427246094z"></path>
                </g>
            </g>
            <g style="display: block;" transform="matrix(0,0,0,0,486.3089904785156,332.22900390625)"
                opacity="1">
                <g opacity="1" transform="matrix(1,0,0,1,0,0)">
                    <g opacity="1" transform="matrix(1,0,0,1,0,0)">
                        <g opacity="1"
                            transform="matrix(1,0,0,1,263.24798583984375,246.01800537109375)">
                            <path fill="rgb(224,216,203)" fill-opacity="1"
                                d=" M-20.20400047302246,60.92399978637695 C-20.20400047302246,60.92399978637695 -20.79599952697754,74.67400360107422 -20.79599952697754,74.67400360107422 C-20.79599952697754,74.67400360107422 -20.79599952697754,-74.67400360107422 -20.79599952697754,-74.67400360107422 C-20.79599952697754,-74.67400360107422 -20.20400047302246,-60.5 -20.20400047302246,-60.5 C-20.20400047302246,-60.5 -20.20400047302246,60.92399978637695 -20.20400047302246,60.92399978637695z"></path>
                            <path stroke-linecap="round" stroke-linejoin="round" fill-opacity="0"
                                stroke="rgb(153,153,153)" stroke-opacity="1" stroke-width="10"
                                d=" M-20.20400047302246,60.92399978637695 C-20.20400047302246,60.92399978637695 -20.79599952697754,74.67400360107422 -20.79599952697754,74.67400360107422 C-20.79599952697754,74.67400360107422 -20.79599952697754,-74.67400360107422 -20.79599952697754,-74.67400360107422 C-20.79599952697754,-74.67400360107422 -20.20400047302246,-60.5 -20.20400047302246,-60.5 C-20.20400047302246,-60.5 -20.20400047302246,60.92399978637695 -20.20400047302246,60.92399978637695z"></path>
                        </g>
                        <g opacity="1"
                            transform="matrix(1,0,0,1,147.33599853515625,387.1099853515625)">
                            <path fill="rgb(224,216,203)" fill-opacity="1"
                                d=" M61.770999908447266,7.136000156402588 C61.770999908447266,15.019000053405762 22.922000885009766,21.409000396728516 -25,21.409000396728516 C-72.9219970703125,21.409000396728516 -111.77100372314453,15.019000053405762 -111.77100372314453,7.136000156402588 C-111.77100372314453,-0.746999979019165 -72.9219970703125,-21.409000396728516 -25,-21.409000396728516 C22.922000885009766,-21.409000396728516 61.770999908447266,-0.746999979019165 61.770999908447266,7.136000156402588z"></path>
                            <path stroke-linecap="round" stroke-linejoin="round" fill-opacity="0"
                                stroke="rgb(153,153,153)" stroke-opacity="1" stroke-width="10"
                                d=" M61.770999908447266,7.136000156402588 C61.770999908447266,15.019000053405762 22.922000885009766,21.409000396728516 -25,21.409000396728516 C-72.9219970703125,21.409000396728516 -111.77100372314453,15.019000053405762 -111.77100372314453,7.136000156402588 C-111.77100372314453,-0.746999979019165 -72.9219970703125,-21.409000396728516 -25,-21.409000396728516 C22.922000885009766,-21.409000396728516 61.770999908447266,-0.746999979019165 61.770999908447266,7.136000156402588z"></path>
                        </g>
                        <g opacity="1"
                            transform="matrix(1,0,0,1,147.33599853515625,335.4599914550781)">
                            <path fill="rgb(224,216,203)" fill-opacity="1"
                                d=" M61.770999908447266,0 C61.770999908447266,22.929000854492188 22.922000885009766,41.516998291015625 -25,41.516998291015625 C-72.9219970703125,41.516998291015625 -111.77100372314453,22.929000854492188 -111.77100372314453,0 C-111.77100372314453,-22.929000854492188 -72.9219970703125,-41.516998291015625 -25,-41.516998291015625 C22.922000885009766,-41.516998291015625 61.770999908447266,-22.929000854492188 61.770999908447266,0z"></path>
                            <path stroke-linecap="round" stroke-linejoin="round" fill-opacity="0"
                                stroke="rgb(153,153,153)" stroke-opacity="1" stroke-width="10"
                                d=" M61.770999908447266,0 C61.770999908447266,22.929000854492188 22.922000885009766,41.516998291015625 -25,41.516998291015625 C-72.9219970703125,41.516998291015625 -111.77100372314453,22.929000854492188 -111.77100372314453,0 C-111.77100372314453,-22.929000854492188 -72.9219970703125,-41.516998291015625 -25,-41.516998291015625 C22.922000885009766,-41.516998291015625 61.770999908447266,-22.929000854492188 61.770999908447266,0z"></path>
                        </g>
                        <g opacity="1"
                            transform="matrix(1,0,0,1,125.88099670410156,244.9040069580078)">
                            <path fill="rgb(224,216,203)" fill-opacity="1"
                                d=" M-117.30500030517578,106.96499633789062 C-117.30500030517578,106.96499633789062 117.30500030517578,106.96499633789062 117.30500030517578,106.96499633789062 C117.30500030517578,106.96499633789062 117.30500030517578,-106.96499633789062 117.30500030517578,-106.96499633789062 C117.30500030517578,-106.96499633789062 -117.30500030517578,-106.96499633789062 -117.30500030517578,-106.96499633789062 C-117.30500030517578,-106.96499633789062 -117.30500030517578,106.96499633789062 -117.30500030517578,106.96499633789062z"></path>
                            <path stroke-linecap="round" stroke-linejoin="round" fill-opacity="0"
                                stroke="rgb(153,153,153)" stroke-opacity="1" stroke-width="10"
                                d=" M-117.30500030517578,106.96499633789062 C-117.30500030517578,106.96499633789062 117.30500030517578,106.96499633789062 117.30500030517578,106.96499633789062 C117.30500030517578,106.96499633789062 117.30500030517578,-106.96499633789062 117.30500030517578,-106.96499633789062 C117.30500030517578,-106.96499633789062 -117.30500030517578,-106.96499633789062 -117.30500030517578,-106.96499633789062 C-117.30500030517578,-106.96499633789062 -117.30500030517578,106.96499633789062 -117.30500030517578,106.96499633789062z"></path>
                        </g>
                        <g opacity="1"
                            transform="matrix(1,0,0,1,253.2169952392578,244.9040069580078)">
                            <path fill="rgb(224,216,203)" fill-opacity="1"
                                d=" M-9.468999862670898,86.93099975585938 C-9.468999862670898,86.93099975585938 -10.031000137329102,106.96499633789062 -10.031000137329102,106.96499633789062 C-10.031000137329102,106.96499633789062 -10.031000137329102,-106.96499633789062 -10.031000137329102,-106.96499633789062 C-10.031000137329102,-106.96499633789062 -9.468999862670898,-87 -9.468999862670898,-87 C-9.468999862670898,-87 -9.468999862670898,86.93099975585938 -9.468999862670898,86.93099975585938z"></path>
                            <path stroke-linecap="round" stroke-linejoin="round" fill-opacity="0"
                                stroke="rgb(153,153,153)" stroke-opacity="1" stroke-width="10"
                                d=" M-9.468999862670898,86.93099975585938 C-9.468999862670898,86.93099975585938 -10.031000137329102,106.96499633789062 -10.031000137329102,106.96499633789062 C-10.031000137329102,106.96499633789062 -10.031000137329102,-106.96499633789062 -10.031000137329102,-106.96499633789062 C-10.031000137329102,-106.96499633789062 -9.468999862670898,-87 -9.468999862670898,-87 C-9.468999862670898,-87 -9.468999862670898,86.93099975585938 -9.468999862670898,86.93099975585938z"></path>
                        </g>
                        <g opacity="1"
                            transform="matrix(1,0,0,1,125.88099670410156,244.9040069580078)">
                            <path fill="url(#__lottie_element_11)" fill-opacity="1"
                                d=" M-87.48200225830078,73.55999755859375 C-87.48200225830078,73.55999755859375 87.48200225830078,73.55999755859375 87.48200225830078,73.55999755859375 C87.48200225830078,73.55999755859375 87.48200225830078,-73.55999755859375 87.48200225830078,-73.55999755859375 C87.48200225830078,-73.55999755859375 -87.48200225830078,-73.55999755859375 -87.48200225830078,-73.55999755859375 C-87.48200225830078,-73.55999755859375 -87.48200225830078,73.55999755859375 -87.48200225830078,73.55999755859375z"></path>
                            <path stroke-linecap="round" stroke-linejoin="round" fill-opacity="0"
                                stroke="rgb(153,153,153)" stroke-opacity="1" stroke-width="10"
                                d=" M-87.48200225830078,73.55999755859375 C-87.48200225830078,73.55999755859375 87.48200225830078,73.55999755859375 87.48200225830078,73.55999755859375 C87.48200225830078,73.55999755859375 87.48200225830078,-73.55999755859375 87.48200225830078,-73.55999755859375 C87.48200225830078,-73.55999755859375 -87.48200225830078,-73.55999755859375 -87.48200225830078,-73.55999755859375 C-87.48200225830078,-73.55999755859375 -87.48200225830078,73.55999755859375 -87.48200225830078,73.55999755859375z"></path>
                        </g>
                        <g opacity="1"
                            transform="matrix(1,0,0,1,125.88099670410156,244.9040069580078)">
                            <path stroke-linecap="round" stroke-linejoin="round" fill-opacity="0"
                                stroke="rgb(104,104,104)" stroke-opacity="1" stroke-width="10"
                                d=" M87.48200225830078,-73.55999755859375 C87.48200225830078,-73.55999755859375 -87.48200225830078,-73.55999755859375 -87.48200225830078,-73.55999755859375 C-87.48200225830078,-73.55999755859375 -87.48200225830078,73.55999755859375 -87.48200225830078,73.55999755859375"></path>
                        </g>
                    </g>
                    <g opacity="1" transform="matrix(1,0,0,1,206.89100646972656,335.4599914550781)">
                        <path fill="rgb(224,216,203)" fill-opacity="1"
                            d=" M5.578999996185303,0 C5.578999996185303,0 -5.578999996185303,0 -5.578999996185303,0"></path>
                        <path stroke-linecap="round" stroke-linejoin="round" fill-opacity="0"
                            stroke="rgb(153,153,153)" stroke-opacity="1" stroke-width="10"
                            d=" M5.578999996185303,0 C5.578999996185303,0 -5.578999996185303,0 -5.578999996185303,0"></path>
                    </g>
                    <g opacity="1" transform="matrix(1,0,0,1,176.63800048828125,335.4599914550781)">
                        <path fill="rgb(224,216,203)" fill-opacity="1"
                            d=" M5.578999996185303,0 C5.578999996185303,0 -5.578999996185303,0 -5.578999996185303,0"></path>
                        <path stroke-linecap="round" stroke-linejoin="round" fill-opacity="0"
                            stroke="rgb(153,153,153)" stroke-opacity="1" stroke-width="10"
                            d=" M5.578999996185303,0 C5.578999996185303,0 -5.578999996185303,0 -5.578999996185303,0"></path>
                    </g>
                </g>
            </g>
        </g>
    </g>
</svg>