<svg xmlns="http://www.w3.org/2000/svg" xmlns:xlink="http://www.w3.org/1999/xlink"
    viewBox="0 0 512 512" width="512" height="512" preserveAspectRatio="xMidYMid meet"
    style="width: 100%; height: 100%; transform: translate3d(0px, 0px, 0px); content-visibility: visible;">
    <defs>
        <clipPath id="__lottie_element_2">
            <rect width="512" height="512" x="0" y="0"></rect>
        </clipPath>
        <clipPath id="__lottie_element_4">
            <path d="M0,0 L512,0 L512,512 L0,512z"></path>
        </clipPath>
        <linearGradient id="__lottie_element_11" spreadMethod="pad" gradientUnits="userSpaceOnUse"
            x1="-237.2010040283203" y1="44.72999954223633" x2="-64.52799987792969"
            y2="-6.043000221252441">
            <stop offset="0%" stop-color="rgb(0,165,237)"></stop>
            <stop offset="0%" stop-color="rgb(0,165,237)"></stop>
            <stop offset="0%" stop-color="rgb(0,165,237)"></stop>
            <stop offset="0%" stop-color="rgb(0,165,237)"></stop>
            <stop offset="0%" stop-color="rgb(0,165,237)"></stop>
            <stop offset="3%" stop-color="rgb(128,210,246)"></stop>
            <stop offset="50%" stop-color="rgb(255,255,255)"></stop>
            <stop offset="83%" stop-color="rgb(128,210,246)"></stop>
            <stop offset="100%" stop-color="rgb(0,165,237)"></stop>
        </linearGradient>
        <linearGradient id="__lottie_element_15" spreadMethod="pad" gradientUnits="userSpaceOnUse"
            x1="-210.55799865722656" y1="40.63787841796875" x2="-4.972197532653809"
            y2="-29.343067169189453">
            <stop offset="0%" stop-color="rgb(0,165,237)"></stop>
            <stop offset="0%" stop-color="rgb(0,165,237)"></stop>
            <stop offset="0%" stop-color="rgb(0,165,237)"></stop>
            <stop offset="0%" stop-color="rgb(0,165,237)"></stop>
            <stop offset="0%" stop-color="rgb(0,165,237)"></stop>
            <stop offset="3%" stop-color="rgb(128,210,246)"></stop>
            <stop offset="50%" stop-color="rgb(255,255,255)"></stop>
            <stop offset="83%" stop-color="rgb(128,210,246)"></stop>
            <stop offset="100%" stop-color="rgb(0,165,237)"></stop>
        </linearGradient>
        <linearGradient id="__lottie_element_19" spreadMethod="pad" gradientUnits="userSpaceOnUse"
            x1="-378.00201416015625" y1="84.80500030517578" x2="-153.9010009765625"
            y2="18.652000427246094">
            <stop offset="0%" stop-color="rgb(0,165,237)"></stop>
            <stop offset="0%" stop-color="rgb(0,165,237)"></stop>
            <stop offset="0%" stop-color="rgb(0,165,237)"></stop>
            <stop offset="0%" stop-color="rgb(0,165,237)"></stop>
            <stop offset="0%" stop-color="rgb(0,165,237)"></stop>
            <stop offset="3%" stop-color="rgb(128,210,246)"></stop>
            <stop offset="50%" stop-color="rgb(255,255,255)"></stop>
            <stop offset="83%" stop-color="rgb(128,210,246)"></stop>
            <stop offset="100%" stop-color="rgb(0,165,237)"></stop>
        </linearGradient>
    </defs>
    <g clip-path="url(#__lottie_element_2)">
        <g clip-path="url(#__lottie_element_4)" style="display: block;"
            transform="matrix(1,0,0,1,0,0)" opacity="1">
            <g style="display: block;"
                transform="matrix(1.100000023841858,0,0,1.100000023841858,274.52960205078125,365.6347961425781)"
                opacity="1">
                <g opacity="1" transform="matrix(1,0,0,1,0,0)">
                    <path fill="rgb(255,213,39)" fill-opacity="1"
                        d=" M-82.69000244140625,-85.6989974975586 C-109.8030014038086,-71.31400299072266 -132.81500244140625,-34.361000061035156 -138.36700439453125,6.889999866485596 C-139.71400451660156,16.89900016784668 -140.0330047607422,27.15999984741211 -139.13299560546875,37.41400146484375 C-134.14100646972656,94.31600189208984 68.1709976196289,91.8239974975586 121.0739974975586,63.130001068115234 C139.27000427246094,53.26100158691406 144.9720001220703,39.57600021362305 133.5469970703125,17.05699920654297 C121.84700012207031,-6.004000186920166 126.03500366210938,-71.11699676513672 83.08300018310547,-86.55000305175781"></path>
                    <path stroke-linecap="round" stroke-linejoin="round" fill-opacity="0"
                        stroke="rgb(250,144,22)" stroke-opacity="1" stroke-width="10"
                        d=" M-82.69000244140625,-85.6989974975586 C-109.8030014038086,-71.31400299072266 -132.81500244140625,-34.361000061035156 -138.36700439453125,6.889999866485596 C-139.71400451660156,16.89900016784668 -140.0330047607422,27.15999984741211 -139.13299560546875,37.41400146484375 C-134.14100646972656,94.31600189208984 68.1709976196289,91.8239974975586 121.0739974975586,63.130001068115234 C139.27000427246094,53.26100158691406 144.9720001220703,39.57600021362305 133.5469970703125,17.05699920654297 C121.84700012207031,-6.004000186920166 126.03500366210938,-71.11699676513672 83.08300018310547,-86.55000305175781"></path>
                </g>
            </g>
            <g style="display: block;"
                transform="matrix(1.100000023841858,0,0,1.100000023841858,174.32070922851562,425.2196044921875)"
                opacity="1">
                <g opacity="1" transform="matrix(1,0,0,1,0,0)">
                    <path stroke-linecap="round" stroke-linejoin="round" fill-opacity="0"
                        stroke="rgb(252,238,33)" stroke-opacity="1" stroke-width="8"
                        d=" M18.344999313354492,6.89900016784668 C3.9200000762939453,6.271999835968018 -16.777000427246094,-3.763000011444092 -18.344999313354492,-6.89900016784668"></path>
                </g>
            </g>
            <g style="display: block;"
                transform="matrix(1.100000023841858,0,0,1.100000023841858,265.68560791015625,182.85658264160156)"
                opacity="1">
                <g opacity="1" transform="matrix(1,0,0,1,0,0)">
                    <path fill="rgb(255,213,39)" fill-opacity="1"
                        d=" M-97.18299865722656,113.0479965209961 C-120.96199798583984,95.33100128173828 -135.11900329589844,70.16799926757812 -135.82000732421875,40.316001892089844 C-137.30799865722656,-23.100000381469727 -77.96499633789062,-86.80400085449219 -2.953000068664551,-88.37799835205078 C72.05899810791016,-89.9520034790039 134.33299255371094,-28.802000045776367 135.8209991455078,34.61399841308594 C136.5229949951172,64.5469970703125 123.48899841308594,90.16600036621094 100.85299682617188,108.71499633789062"></path>
                    <path stroke-linecap="round" stroke-linejoin="round" fill-opacity="0"
                        stroke="rgb(250,144,22)" stroke-opacity="1" stroke-width="10"
                        d=" M-97.18299865722656,113.0479965209961 C-120.96199798583984,95.33100128173828 -135.11900329589844,70.16799926757812 -135.82000732421875,40.316001892089844 C-137.30799865722656,-23.100000381469727 -77.96499633789062,-86.80400085449219 -2.953000068664551,-88.37799835205078 C72.05899810791016,-89.9520034790039 134.33299255371094,-28.802000045776367 135.8209991455078,34.61399841308594 C136.5229949951172,64.5469970703125 123.48899841308594,90.16600036621094 100.85299682617188,108.71499633789062"></path>
                </g>
            </g>
            <g style="display: block;"
                transform="matrix(1.100000023841858,0,0,1.100000023841858,419.76922607421875,153.98489379882812)"
                opacity="1">
                <g opacity="1" transform="matrix(1,0,0,1,0,0)">
                    <path stroke-linecap="round" stroke-linejoin="round" fill-opacity="0"
                        stroke="rgb(255,255,255)" stroke-opacity="1" stroke-width="8"
                        d=" M-114.46299743652344,-43.292999267578125 C-136.4290008544922,-50.19200134277344 -161.18800354003906,-46.66999816894531 -178.87899780273438,-40.12300109863281"></path>
                </g>
            </g>
            <g style="display: block;"
                transform="matrix(1.0999921560287476,0.004157051909714937,-0.004157051909714937,1.0999921560287476,262.3966064453125,173.23377990722656)"
                opacity="1">
                <g opacity="1" transform="matrix(1,0,0,1,0,0)">
                    <path fill="rgb(255,93,31)" fill-opacity="1"
                        d=" M-40.41600036621094,-1.1649999618530273 C-15.86400032043457,-3.424999952316284 -11.956000328063965,-27.599000930786133 -2.316999912261963,-28.104000091552734 C8.475000381469727,-28.66900062561035 17.19700050354004,-3.5820000171661377 39.78200149536133,-2.8340001106262207 C53.3120002746582,-2.385999917984009 57.941001892089844,3.9210000038146973 58.40599822998047,8.373000144958496 C58.74599838256836,11.628999710083008 58.099998474121094,14.92300033569336 55.39899826049805,18.31100082397461 C51.64699935913086,23.01799964904785 41.89899826049805,27.98900032043457 36.39699935913086,29.41699981689453 C2.877000093460083,38.11899948120117 -34.15999984741211,31.885000228881836 -43.92100143432617,26.937999725341797 C-50.17900085449219,23.766000747680664 -54.70000076293945,18.94099998474121 -56.18899917602539,13.47599983215332 C-57.678001403808594,8.01099967956543 -53.130001068115234,0.006000000052154064 -40.41600036621094,-1.1649999618530273z"></path>
                    <path stroke-linecap="butt" stroke-linejoin="round" fill-opacity="0"
                        stroke="rgb(207,53,2)" stroke-opacity="1" stroke-width="10"
                        d=" M-40.41600036621094,-1.1649999618530273 C-15.86400032043457,-3.424999952316284 -11.956000328063965,-27.599000930786133 -2.316999912261963,-28.104000091552734 C8.475000381469727,-28.66900062561035 17.19700050354004,-3.5820000171661377 39.78200149536133,-2.8340001106262207 C53.3120002746582,-2.385999917984009 57.941001892089844,3.9210000038146973 58.40599822998047,8.373000144958496 C58.74599838256836,11.628999710083008 58.099998474121094,14.92300033569336 55.39899826049805,18.31100082397461 C51.64699935913086,23.01799964904785 41.89899826049805,27.98900032043457 36.39699935913086,29.41699981689453 C2.877000093460083,38.11899948120117 -34.15999984741211,31.885000228881836 -43.92100143432617,26.937999725341797 C-50.17900085449219,23.766000747680664 -54.70000076293945,18.94099998474121 -56.18899917602539,13.47599983215332 C-57.678001403808594,8.01099967956543 -53.130001068115234,0.006000000052154064 -40.41600036621094,-1.1649999618530273z"></path>
                </g>
            </g>
            <g style="display: block;"
                transform="matrix(1.0999921560287476,0.004157051909714937,-0.004157051909714937,1.0999921560287476,264.3160400390625,166.84999084472656)"
                opacity="0.33">
                <g opacity="1" transform="matrix(1,0,0,1,0,0)">
                    <path stroke-linecap="round" stroke-linejoin="round" fill-opacity="0"
                        stroke="rgb(255,255,255)" stroke-opacity="1" stroke-width="10"
                        d=" M10.192000389099121,4.364999771118164 C5.355000019073486,0.8640000224113464 0.6880000233650208,-4.513000011444092 -1.555999994277954,-8.140999794006348"></path>
                </g>
            </g>
            <g style="display: block;"
                transform="matrix(1.0999921560287476,0.004157051909714937,-0.004157051909714937,1.0999921560287476,254.66763305664062,186.70716857910156)"
                opacity="1">
                <g opacity="1" transform="matrix(1,0,0,1,0,0)">
                    <path stroke-linecap="round" stroke-linejoin="round" fill-opacity="0"
                        stroke="rgb(125,9,9)" stroke-opacity="1" stroke-width="10"
                        d=" M45.5880012512207,-0.43799999356269836 C11.222999572753906,8.295000076293945 -14.020000457763672,3.6080000400543213 -29.58099937438965,0.7710000276565552"></path>
                </g>
            </g>
            <g style="display: block;"
                transform="matrix(1.0889207124710083,-0.15569119155406952,0.1401231437921524,0.9800361394882202,339.6471862792969,142.87840270996094)"
                opacity="1">
                <g opacity="1" transform="matrix(1,0,0,1,0,0)">
                    <path fill="rgb(0,0,0)" fill-opacity="1"
                        d=" M23.652000427246094,0 C23.652000427246094,15.362000465393066 13.062999725341797,27.815000534057617 0,27.815000534057617 C-13.062999725341797,27.815000534057617 -23.652000427246094,15.362000465393066 -23.652000427246094,0 C-23.652000427246094,-15.362000465393066 -13.062999725341797,-27.815000534057617 0,-27.815000534057617 C13.062999725341797,-27.815000534057617 23.652000427246094,-15.362000465393066 23.652000427246094,0z"></path>
                    <path stroke-linecap="round" stroke-linejoin="round" fill-opacity="0"
                        stroke="rgb(0,0,0)" stroke-opacity="1" stroke-width="0"
                        d=" M23.652000427246094,0 C23.652000427246094,15.362000465393066 13.062999725341797,27.815000534057617 0,27.815000534057617 C-13.062999725341797,27.815000534057617 -23.652000427246094,15.362000465393066 -23.652000427246094,0 C-23.652000427246094,-15.362000465393066 -13.062999725341797,-27.815000534057617 0,-27.815000534057617 C13.062999725341797,-27.815000534057617 23.652000427246094,-15.362000465393066 23.652000427246094,0z"></path>
                </g>
            </g>
            <g style="display: block;"
                transform="matrix(1.0889207124710083,-0.15569119155406952,0.1401231437921524,0.9800361394882202,344.097900390625,129.85617065429688)"
                opacity="1">
                <g opacity="1" transform="matrix(1,0,0,1,0,0)">
                    <path fill="rgb(255,255,255)" fill-opacity="1"
                        d=" M-5.818999767303467,3.6670000553131104 C-3.6089999675750732,7.552000045776367 0.7879999876022339,9.0600004196167 4.001999855041504,7.034999847412109 C7.216000080108643,5.010000228881836 8.029000282287598,0.21799999475479126 5.818999767303467,-3.6670000553131104 C3.6089999675750732,-7.552000045776367 -0.7879999876022339,-9.0600004196167 -4.001999855041504,-7.034999847412109 C-7.216000080108643,-5.010000228881836 -8.029000282287598,-0.21799999475479126 -5.818999767303467,3.6670000553131104z"></path>
                </g>
            </g>
            <g style="display: block;"
                transform="matrix(1.0820419788360596,0.19791415333747864,-0.1781243234872818,0.9738464951515198,184.91134643554688,144.31214904785156)"
                opacity="1">
                <g opacity="1" transform="matrix(1,0,0,1,0,0)">
                    <path fill="rgb(0,0,0)" fill-opacity="1"
                        d=" M23.652000427246094,0 C23.652000427246094,15.362000465393066 13.062999725341797,27.815000534057617 0,27.815000534057617 C-13.062999725341797,27.815000534057617 -23.652000427246094,15.362000465393066 -23.652000427246094,0 C-23.652000427246094,-15.362000465393066 -13.062999725341797,-27.815000534057617 0,-27.815000534057617 C13.062999725341797,-27.815000534057617 23.652000427246094,-15.362000465393066 23.652000427246094,0z"></path>
                    <path stroke-linecap="round" stroke-linejoin="round" fill-opacity="0"
                        stroke="rgb(0,0,0)" stroke-opacity="1" stroke-width="0"
                        d=" M23.652000427246094,0 C23.652000427246094,15.362000465393066 13.062999725341797,27.815000534057617 0,27.815000534057617 C-13.062999725341797,27.815000534057617 -23.652000427246094,15.362000465393066 -23.652000427246094,0 C-23.652000427246094,-15.362000465393066 -13.062999725341797,-27.815000534057617 0,-27.815000534057617 C13.062999725341797,-27.815000534057617 23.652000427246094,-15.362000465393066 23.652000427246094,0z"></path>
                </g>
            </g>
            <g style="display: block;"
                transform="matrix(1.0820419788360596,0.19791415333747864,-0.1781243234872818,0.9738464951515198,193.26449584960938,133.3754119873047)"
                opacity="1">
                <g opacity="1" transform="matrix(1,0,0,1,0,0)">
                    <path fill="rgb(255,255,255)" fill-opacity="1"
                        d=" M-5.818999767303467,3.6670000553131104 C-3.6089999675750732,7.552000045776367 0.7879999876022339,9.0600004196167 4.001999855041504,7.034999847412109 C7.216000080108643,5.010000228881836 8.029000282287598,0.21799999475479126 5.818999767303467,-3.6670000553131104 C3.6089999675750732,-7.552000045776367 -0.7879999876022339,-9.0600004196167 -4.001999855041504,-7.034999847412109 C-7.216000080108643,-5.010000228881836 -8.029000282287598,-0.21799999475479126 -5.818999767303467,3.6670000553131104z"></path>
                </g>
            </g>
            <g style="display: block;"
                transform="matrix(-0.4311840236186981,-1.0119686126708984,1.0119686126708984,-0.4311840236186981,117.30714416503906,352.1636962890625)"
                opacity="1">
                <g opacity="1" transform="matrix(1,0,0,1,0,0)">
                    <path fill="rgb(255,213,39)" fill-opacity="1"
                        d=" M-8.429452896118164,37.7230339050293 C-43.13888931274414,4.216589450836182 -34.0001220703125,-22.589683532714844 -51.21500015258789,-29.531999588012695 C-63.110069274902344,-34.2790412902832 -78.34725189208984,-24.622289657592773 -87.76625061035156,16.828710556030273"></path>
                    <path stroke-linecap="round" stroke-linejoin="round" fill-opacity="0"
                        stroke="rgb(250,144,22)" stroke-opacity="1" stroke-width="10"
                        d=" M-8.429452896118164,37.7230339050293 C-43.13888931274414,4.216589450836182 -34.0001220703125,-22.589683532714844 -51.21500015258789,-29.531999588012695 C-63.110069274902344,-34.2790412902832 -78.34725189208984,-24.622289657592773 -87.76625061035156,16.828710556030273"></path>
                </g>
            </g>
            <g style="display: block;"
                transform="matrix(0.022900421172380447,-1.0997616052627563,1.0997616052627563,0.022900421172380447,251.71383666992188,489.4397277832031)"
                opacity="1">
                <g opacity="1" transform="matrix(1,0,0,1,0,0)">
                    <path stroke-linecap="round" stroke-linejoin="round" fill-opacity="0"
                        stroke="rgb(255,255,255)" stroke-opacity="1" stroke-width="8"
                        d=" M76.73400115966797,-109.81199645996094 C82.70099639892578,-102.26200103759766 90.02400207519531,-97.23500061035156 99.16000366210938,-89.91200256347656"></path>
                </g>
            </g>
            <g style="display: block;"
                transform="matrix(1.0778099298477173,0.2198314666748047,-0.2198314666748047,1.0778099298477173,372.9293212890625,369.9652099609375)"
                opacity="1">
                <g opacity="1" transform="matrix(1,0,0,1,0,0)">
                    <path fill="rgb(255,213,39)" fill-opacity="1"
                        d=" M39.05315399169922,9.063835144042969 C42.98453140258789,-39.24660110473633 25.244388580322266,-91.72919464111328 3.523388147354126,-97.29319763183594 C-4.729611873626709,-99.40719604492188 1.041592001914978,-42.49351119995117 -26.16900062561035,-12.446999549865723"></path>
                    <path stroke-linecap="round" stroke-linejoin="round" fill-opacity="0"
                        stroke="rgb(250,144,22)" stroke-opacity="1" stroke-width="10"
                        d=" M39.05315399169922,9.063835144042969 C42.98453140258789,-39.24660110473633 25.244388580322266,-91.72919464111328 3.523388147354126,-97.29319763183594 C-4.729611873626709,-99.40719604492188 1.041592001914978,-42.49351119995117 -26.16900062561035,-12.446999549865723"></path>
                </g>
            </g>
            <g style="display: block;"
                transform="matrix(0.8921814560890198,0.643437922000885,-0.643437922000885,0.8921814560890198,132.375,304.1526794433594)"
                opacity="1">
                <g opacity="1" transform="matrix(1,0,0,1,0,0)">
                    <path stroke-linecap="round" stroke-linejoin="round" fill-opacity="0"
                        stroke="rgb(252,238,33)" stroke-opacity="1" stroke-width="8"
                        d=" M204.5260009765625,-143.7790069580078 C214.656005859375,-133.53399658203125 221.99400329589844,-124.69499969482422 228.68099975585938,-109.6780014038086"></path>
                </g>
            </g>
            <g style="display: block;" transform="matrix(0,0,0,0,473.3089904785156,332.22900390625)"
                opacity="1">
                <g opacity="1" transform="matrix(1,0,0,1,0,0)">
                    <g opacity="1" transform="matrix(1,0,0,1,0,0)">
                        <g opacity="1"
                            transform="matrix(1,0,0,1,39.185001373291016,278.3529968261719)">
                            <path fill="rgb(0,63,91)" fill-opacity="1"
                                d=" M85.73834228515625,103.06778717041016 C85.73834228515625,103.06778717041016 68.00323486328125,-107.98702239990234 68.00323486328125,-107.98702239990234 C67.05419921875,-119.31202697753906 54.2430419921875,-130.90089416503906 42.91904067993164,-130.90089416503906 C42.91904067993164,-130.90089416503906 -43.715110778808594,-130.94093322753906 -43.715110778808594,-130.94093322753906 C-48.58011245727539,-130.94093322753906 -52.906822204589844,-129.24693298339844 -56.185455322265625,-126.41670989990234 C-58.152610778808594,-124.71871185302734 -68.04228210449219,-116.24771118164062 -70.22992706298828,-112.86571502685547 C-72.41757202148438,-109.48371124267578 -73.5271224975586,-105.31671142578125 -73.14924621582031,-100.80548858642578 C-73.14924621582031,-100.80548858642578 -55.203495025634766,110.58251190185547 -55.203495025634766,110.58251190185547 C-52.20102310180664,122.75874328613281 -41.000675201416016,131.13221740722656 -29.67667579650879,131.13221740722656 C-29.67667579650879,131.13221740722656 59.21087646484375,131.0841827392578 59.21087646484375,131.0841827392578 C62.89087677001953,131.0841827392578 65.9649658203125,130.1913604736328 68.79833221435547,128.4774627685547 C71.58869934082031,126.78619384765625 79.77202606201172,119.1632308959961 81.91287994384766,116.4050064086914 C84.69330596923828,112.82301330566406 86.16510009765625,108.16500854492188 85.73834228515625,103.06778717041016z"></path>
                            <path stroke-linecap="round" stroke-linejoin="round" fill-opacity="0"
                                stroke="rgb(0,63,91)" stroke-opacity="1" stroke-width="10"
                                d=" M85.73834228515625,103.06778717041016 C85.73834228515625,103.06778717041016 68.00323486328125,-107.98702239990234 68.00323486328125,-107.98702239990234 C67.05419921875,-119.31202697753906 54.2430419921875,-130.90089416503906 42.91904067993164,-130.90089416503906 C42.91904067993164,-130.90089416503906 -43.715110778808594,-130.94093322753906 -43.715110778808594,-130.94093322753906 C-48.58011245727539,-130.94093322753906 -52.906822204589844,-129.24693298339844 -56.185455322265625,-126.41670989990234 C-58.152610778808594,-124.71871185302734 -68.04228210449219,-116.24771118164062 -70.22992706298828,-112.86571502685547 C-72.41757202148438,-109.48371124267578 -73.5271224975586,-105.31671142578125 -73.14924621582031,-100.80548858642578 C-73.14924621582031,-100.80548858642578 -55.203495025634766,110.58251190185547 -55.203495025634766,110.58251190185547 C-52.20102310180664,122.75874328613281 -41.000675201416016,131.13221740722656 -29.67667579650879,131.13221740722656 C-29.67667579650879,131.13221740722656 59.21087646484375,131.0841827392578 59.21087646484375,131.0841827392578 C62.89087677001953,131.0841827392578 65.9649658203125,130.1913604736328 68.79833221435547,128.4774627685547 C71.58869934082031,126.78619384765625 79.77202606201172,119.1632308959961 81.91287994384766,116.4050064086914 C84.69330596923828,112.82301330566406 86.16510009765625,108.16500854492188 85.73834228515625,103.06778717041016z"></path>
                        </g>
                        <g opacity="1"
                            transform="matrix(1,0,0,1,44.369998931884766,273.5379943847656)">
                            <path fill="url(#__lottie_element_19)" fill-opacity="1"
                                d=" M57.51300048828125,126.04900360107422 C57.51300048828125,126.04900360107422 -31.98200035095215,126.04900360107422 -31.98200035095215,126.04900360107422 C-43.30699920654297,126.04900360107422 -52.32899856567383,116.86799621582031 -52.1349983215332,105.54299926757812 C-52.1349983215332,105.54299926757812 -48.72200012207031,-105.85099792480469 -48.72200012207031,-105.85099792480469 C-48.52799987792969,-117.1760025024414 -39.189998626708984,-126.35600280761719 -27.864999771118164,-126.35600280761719 C-27.864999771118164,-126.35600280761719 61.62900161743164,-126.35600280761719 61.62900161743164,-126.35600280761719 C72.9540023803711,-126.35600280761719 81.97599792480469,-117.1760025024414 81.78199768066406,-105.85099792480469 C81.78199768066406,-105.85099792480469 78.37000274658203,105.54299926757812 78.37000274658203,105.54299926757812 C78.1760025024414,116.86799621582031 68.83799743652344,126.04900360107422 57.51300048828125,126.04900360107422z"></path>
                            <path stroke-linecap="round" stroke-linejoin="round" fill-opacity="0"
                                stroke="rgb(0,63,91)" stroke-opacity="1" stroke-width="10"
                                d=" M57.51300048828125,126.04900360107422 C57.51300048828125,126.04900360107422 -31.98200035095215,126.04900360107422 -31.98200035095215,126.04900360107422 C-43.30699920654297,126.04900360107422 -52.32899856567383,116.86799621582031 -52.1349983215332,105.54299926757812 C-52.1349983215332,105.54299926757812 -48.72200012207031,-105.85099792480469 -48.72200012207031,-105.85099792480469 C-48.52799987792969,-117.1760025024414 -39.189998626708984,-126.35600280761719 -27.864999771118164,-126.35600280761719 C-27.864999771118164,-126.35600280761719 61.62900161743164,-126.35600280761719 61.62900161743164,-126.35600280761719 C72.9540023803711,-126.35600280761719 81.97599792480469,-117.1760025024414 81.78199768066406,-105.85099792480469 C81.78199768066406,-105.85099792480469 78.37000274658203,105.54299926757812 78.37000274658203,105.54299926757812 C78.1760025024414,116.86799621582031 68.83799743652344,126.04900360107422 57.51300048828125,126.04900360107422z"></path>
                        </g>
                        <g opacity="1"
                            transform="matrix(1,0,0,1,30.280000686645508,163.3820037841797)">
                            <path fill="rgb(0,0,0)" fill-opacity="1"
                                d=" M46.7130012512207,-5.820000171661377 C46.7130012512207,-5.820000171661377 12.763999938964844,-5.820000171661377 12.763999938964844,-5.820000171661377 C9.229999542236328,-5.820000171661377 6.306000232696533,-2.943000078201294 6.244999885559082,0.5910000205039978 C6.184000015258789,4.125 9.010000228881836,7 12.543999671936035,7 C12.543999671936035,7 46.49300003051758,7 46.49300003051758,7 C50.027000427246094,7 52.95100021362305,4.125 53.012001037597656,0.5910000205039978 C53.073001861572266,-2.943000078201294 50.24700164794922,-5.820000171661377 46.7130012512207,-5.820000171661377z"></path>
                        </g>
                    </g>
                    <g opacity="1" transform="matrix(1,0,0,1,-35.89400100708008,208.38800048828125)">
                        <path fill="rgb(0,143,202)" fill-opacity="1"
                            d=" M31.049999237060547,13.892999649047852 C31.049999237060547,13.892999649047852 31.450000762939453,-13.873000144958496 31.450000762939453,-13.873000144958496"></path>
                        <path stroke-linecap="round" stroke-linejoin="round" fill-opacity="0"
                            stroke="rgb(0,91,142)" stroke-opacity="1" stroke-width="10"
                            d=" M31.049999237060547,13.892999649047852 C31.049999237060547,13.892999649047852 31.450000762939453,-13.873000144958496 31.450000762939453,-13.873000144958496"></path>
                    </g>
                    <g opacity="1" transform="matrix(1,0,0,1,-30.82900047302246,253.33700561523438)">
                        <path fill="rgb(0,143,202)" fill-opacity="1"
                            d=" M24.9950008392334,15.37600040435791 C24.9950008392334,15.37600040435791 25.5049991607666,-15.826000213623047 25.5049991607666,-15.826000213623047"></path>
                        <path stroke-linecap="round" stroke-linejoin="round" fill-opacity="0"
                            stroke="rgb(0,91,142)" stroke-opacity="1" stroke-width="10"
                            d=" M24.9950008392334,15.37600040435791 C24.9950008392334,15.37600040435791 25.5049991607666,-15.826000213623047 25.5049991607666,-15.826000213623047"></path>
                    </g>
                </g>
                <g opacity="1" transform="matrix(1,0,0,1,40.65700149536133,268.82598876953125)"></g>
            </g>
            <g style="display: block;"
                transform="matrix(0.9998723864555359,-0.015976937487721443,0.015976937487721443,0.9998723864555359,-71.8257064819336,75.61276245117188)"
                opacity="1">
                <g opacity="1" transform="matrix(1,0,0,1,344.5530090332031,262.7040100097656)">
                    <path fill="url(#__lottie_element_15)" fill-opacity="1"
                        d=" M98.59502410888672,98.71369934082031 C98.59502410888672,98.71369934082031 -128.6659698486328,98.71369934082031 -128.6659698486328,98.71369934082031 C-137.2959747314453,98.71369934082031 -144.42657470703125,91.71709442138672 -144.59202575683594,83.08709716796875 C-144.59202575683594,83.08709716796875 -147.76402282714844,-82.60130310058594 -147.76402282714844,-82.60130310058594 C-147.92945861816406,-91.2313003540039 -141.06646728515625,-98.22830200195312 -132.43646240234375,-98.22830200195312 C-132.43646240234375,-98.22830200195312 94.82493591308594,-98.22830200195312 94.82493591308594,-98.22830200195312 C103.4549331665039,-98.22830200195312 110.58554077148438,-91.2313003540039 110.7509765625,-82.60130310058594 C110.7509765625,-82.60130310058594 113.92298126220703,83.08709716796875 113.92298126220703,83.08709716796875 C114.08841705322266,91.71709442138672 107.22502136230469,98.71369934082031 98.59502410888672,98.71369934082031z"></path>
                    <path stroke-linecap="round" stroke-linejoin="round" fill-opacity="0"
                        stroke="rgb(0,0,0)" stroke-opacity="1" stroke-width="10"
                        d=" M98.59502410888672,98.71369934082031 C98.59502410888672,98.71369934082031 -128.6659698486328,98.71369934082031 -128.6659698486328,98.71369934082031 C-137.2959747314453,98.71369934082031 -144.42657470703125,91.71709442138672 -144.59202575683594,83.08709716796875 C-144.59202575683594,83.08709716796875 -147.76402282714844,-82.60130310058594 -147.76402282714844,-82.60130310058594 C-147.92945861816406,-91.2313003540039 -141.06646728515625,-98.22830200195312 -132.43646240234375,-98.22830200195312 C-132.43646240234375,-98.22830200195312 94.82493591308594,-98.22830200195312 94.82493591308594,-98.22830200195312 C103.4549331665039,-98.22830200195312 110.58554077148438,-91.2313003540039 110.7509765625,-82.60130310058594 C110.7509765625,-82.60130310058594 113.92298126220703,83.08709716796875 113.92298126220703,83.08709716796875 C114.08841705322266,91.71709442138672 107.22502136230469,98.71369934082031 98.59502410888672,98.71369934082031z"></path>
                </g>
                <g opacity="1" transform="matrix(1,0,0,1,314.1510009765625,376.3269958496094)">
                    <path fill="rgb(224,216,203)" fill-opacity="1"
                        d=" M-93.73890686035156,15.071501731872559 C-93.73890686035156,15.071501731872559 127.72909545898438,15.308100700378418 127.72909545898438,15.308100700378418 C138.2021026611328,15.308100700378418 146.6920928955078,6.818100929260254 146.6920928955078,-3.6548991203308105 C146.6920928955078,-3.6548991203308105 146.6920928955078,-5.627498626708984 146.6920928955078,-5.627498626708984 C146.6920928955078,-10.801498413085938 142.49710083007812,-14.996498107910156 137.32308959960938,-14.996498107910156 C137.32308959960938,-14.996498107910156 -103.33290100097656,-15.232898712158203 -103.33290100097656,-15.232898712158203 C-108.50690460205078,-15.232898712158203 -112.701904296875,-11.037899017333984 -112.701904296875,-5.863899230957031 C-112.701904296875,-5.863899230957031 -112.701904296875,-3.891498565673828 -112.701904296875,-3.891498565673828 C-112.701904296875,6.581501483917236 -104.21190643310547,15.071501731872559 -93.73890686035156,15.071501731872559z"></path>
                    <path stroke-linecap="round" stroke-linejoin="round" fill-opacity="0"
                        stroke="rgb(153,153,153)" stroke-opacity="1" stroke-width="10"
                        d=" M-93.73890686035156,15.071501731872559 C-93.73890686035156,15.071501731872559 127.72909545898438,15.308100700378418 127.72909545898438,15.308100700378418 C138.2021026611328,15.308100700378418 146.6920928955078,6.818100929260254 146.6920928955078,-3.6548991203308105 C146.6920928955078,-3.6548991203308105 146.6920928955078,-5.627498626708984 146.6920928955078,-5.627498626708984 C146.6920928955078,-10.801498413085938 142.49710083007812,-14.996498107910156 137.32308959960938,-14.996498107910156 C137.32308959960938,-14.996498107910156 -103.33290100097656,-15.232898712158203 -103.33290100097656,-15.232898712158203 C-108.50690460205078,-15.232898712158203 -112.701904296875,-11.037899017333984 -112.701904296875,-5.863899230957031 C-112.701904296875,-5.863899230957031 -112.701904296875,-3.891498565673828 -112.701904296875,-3.891498565673828 C-112.701904296875,6.581501483917236 -104.21190643310547,15.071501731872559 -93.73890686035156,15.071501731872559z"></path>
                </g>
                <g opacity="1" transform="matrix(1,0,0,1,294.82000732421875,376.3269958496094)">
                    <path fill="rgb(224,216,203)" fill-opacity="1"
                        d=" M-79.56913757324219,15.152000427246094 C-79.56913757324219,15.152000427246094 133.23486328125,15.152000427246094 133.23486328125,15.152000427246094 C143.70785522460938,15.152000427246094 152.19786071777344,6.6620001792907715 152.19786071777344,-3.811000108718872 C152.19786071777344,-3.811000108718872 152.19786071777344,-5.7829999923706055 152.19786071777344,-5.7829999923706055 C152.19786071777344,-10.956999778747559 148.0038604736328,-15.152000427246094 142.82986450195312,-15.152000427246094 C142.82986450195312,-15.152000427246094 -89.16413879394531,-15.152000427246094 -89.16413879394531,-15.152000427246094 C-94.33814239501953,-15.152000427246094 -98.53214263916016,-10.956999778747559 -98.53214263916016,-5.7829999923706055 C-98.53214263916016,-5.7829999923706055 -98.53214263916016,-3.811000108718872 -98.53214263916016,-3.811000108718872 C-98.53214263916016,6.6620001792907715 -90.0421371459961,15.152000427246094 -79.56913757324219,15.152000427246094z"></path>
                    <path stroke-linecap="round" stroke-linejoin="round" fill-opacity="0"
                        stroke="rgb(153,153,153)" stroke-opacity="1" stroke-width="10"
                        d=" M-79.56913757324219,15.152000427246094 C-79.56913757324219,15.152000427246094 133.23486328125,15.152000427246094 133.23486328125,15.152000427246094 C143.70785522460938,15.152000427246094 152.19786071777344,6.6620001792907715 152.19786071777344,-3.811000108718872 C152.19786071777344,-3.811000108718872 152.19786071777344,-5.7829999923706055 152.19786071777344,-5.7829999923706055 C152.19786071777344,-10.956999778747559 148.0038604736328,-15.152000427246094 142.82986450195312,-15.152000427246094 C142.82986450195312,-15.152000427246094 -89.16413879394531,-15.152000427246094 -89.16413879394531,-15.152000427246094 C-94.33814239501953,-15.152000427246094 -98.53214263916016,-10.956999778747559 -98.53214263916016,-5.7829999923706055 C-98.53214263916016,-5.7829999923706055 -98.53214263916016,-3.811000108718872 -98.53214263916016,-3.811000108718872 C-98.53214263916016,6.6620001792907715 -90.0421371459961,15.152000427246094 -79.56913757324219,15.152000427246094z"></path>
                </g>
            </g>
            <g style="display: block;" transform="matrix(0,0,0,0,486.3089904785156,332.22900390625)"
                opacity="1">
                <g opacity="1" transform="matrix(1,0,0,1,0,0)">
                    <g opacity="1" transform="matrix(1,0,0,1,0,0)">
                        <g opacity="1"
                            transform="matrix(1,0,0,1,263.24798583984375,246.01800537109375)">
                            <path fill="rgb(224,216,203)" fill-opacity="1"
                                d=" M-20.20400047302246,60.92399978637695 C-20.20400047302246,60.92399978637695 -20.79599952697754,74.67400360107422 -20.79599952697754,74.67400360107422 C-20.79599952697754,74.67400360107422 -20.79599952697754,-74.67400360107422 -20.79599952697754,-74.67400360107422 C-20.79599952697754,-74.67400360107422 -20.20400047302246,-60.5 -20.20400047302246,-60.5 C-20.20400047302246,-60.5 -20.20400047302246,60.92399978637695 -20.20400047302246,60.92399978637695z"></path>
                            <path stroke-linecap="round" stroke-linejoin="round" fill-opacity="0"
                                stroke="rgb(153,153,153)" stroke-opacity="1" stroke-width="10"
                                d=" M-20.20400047302246,60.92399978637695 C-20.20400047302246,60.92399978637695 -20.79599952697754,74.67400360107422 -20.79599952697754,74.67400360107422 C-20.79599952697754,74.67400360107422 -20.79599952697754,-74.67400360107422 -20.79599952697754,-74.67400360107422 C-20.79599952697754,-74.67400360107422 -20.20400047302246,-60.5 -20.20400047302246,-60.5 C-20.20400047302246,-60.5 -20.20400047302246,60.92399978637695 -20.20400047302246,60.92399978637695z"></path>
                        </g>
                        <g opacity="1"
                            transform="matrix(1,0,0,1,147.33599853515625,387.1099853515625)">
                            <path fill="rgb(224,216,203)" fill-opacity="1"
                                d=" M61.770999908447266,7.136000156402588 C61.770999908447266,15.019000053405762 22.922000885009766,21.409000396728516 -25,21.409000396728516 C-72.9219970703125,21.409000396728516 -111.77100372314453,15.019000053405762 -111.77100372314453,7.136000156402588 C-111.77100372314453,-0.746999979019165 -72.9219970703125,-21.409000396728516 -25,-21.409000396728516 C22.922000885009766,-21.409000396728516 61.770999908447266,-0.746999979019165 61.770999908447266,7.136000156402588z"></path>
                            <path stroke-linecap="round" stroke-linejoin="round" fill-opacity="0"
                                stroke="rgb(153,153,153)" stroke-opacity="1" stroke-width="10"
                                d=" M61.770999908447266,7.136000156402588 C61.770999908447266,15.019000053405762 22.922000885009766,21.409000396728516 -25,21.409000396728516 C-72.9219970703125,21.409000396728516 -111.77100372314453,15.019000053405762 -111.77100372314453,7.136000156402588 C-111.77100372314453,-0.746999979019165 -72.9219970703125,-21.409000396728516 -25,-21.409000396728516 C22.922000885009766,-21.409000396728516 61.770999908447266,-0.746999979019165 61.770999908447266,7.136000156402588z"></path>
                        </g>
                        <g opacity="1"
                            transform="matrix(1,0,0,1,147.33599853515625,335.4599914550781)">
                            <path fill="rgb(224,216,203)" fill-opacity="1"
                                d=" M61.770999908447266,0 C61.770999908447266,22.929000854492188 22.922000885009766,41.516998291015625 -25,41.516998291015625 C-72.9219970703125,41.516998291015625 -111.77100372314453,22.929000854492188 -111.77100372314453,0 C-111.77100372314453,-22.929000854492188 -72.9219970703125,-41.516998291015625 -25,-41.516998291015625 C22.922000885009766,-41.516998291015625 61.770999908447266,-22.929000854492188 61.770999908447266,0z"></path>
                            <path stroke-linecap="round" stroke-linejoin="round" fill-opacity="0"
                                stroke="rgb(153,153,153)" stroke-opacity="1" stroke-width="10"
                                d=" M61.770999908447266,0 C61.770999908447266,22.929000854492188 22.922000885009766,41.516998291015625 -25,41.516998291015625 C-72.9219970703125,41.516998291015625 -111.77100372314453,22.929000854492188 -111.77100372314453,0 C-111.77100372314453,-22.929000854492188 -72.9219970703125,-41.516998291015625 -25,-41.516998291015625 C22.922000885009766,-41.516998291015625 61.770999908447266,-22.929000854492188 61.770999908447266,0z"></path>
                        </g>
                        <g opacity="1"
                            transform="matrix(1,0,0,1,125.88099670410156,244.9040069580078)">
                            <path fill="rgb(224,216,203)" fill-opacity="1"
                                d=" M-117.30500030517578,106.96499633789062 C-117.30500030517578,106.96499633789062 117.30500030517578,106.96499633789062 117.30500030517578,106.96499633789062 C117.30500030517578,106.96499633789062 117.30500030517578,-106.96499633789062 117.30500030517578,-106.96499633789062 C117.30500030517578,-106.96499633789062 -117.30500030517578,-106.96499633789062 -117.30500030517578,-106.96499633789062 C-117.30500030517578,-106.96499633789062 -117.30500030517578,106.96499633789062 -117.30500030517578,106.96499633789062z"></path>
                            <path stroke-linecap="round" stroke-linejoin="round" fill-opacity="0"
                                stroke="rgb(153,153,153)" stroke-opacity="1" stroke-width="10"
                                d=" M-117.30500030517578,106.96499633789062 C-117.30500030517578,106.96499633789062 117.30500030517578,106.96499633789062 117.30500030517578,106.96499633789062 C117.30500030517578,106.96499633789062 117.30500030517578,-106.96499633789062 117.30500030517578,-106.96499633789062 C117.30500030517578,-106.96499633789062 -117.30500030517578,-106.96499633789062 -117.30500030517578,-106.96499633789062 C-117.30500030517578,-106.96499633789062 -117.30500030517578,106.96499633789062 -117.30500030517578,106.96499633789062z"></path>
                        </g>
                        <g opacity="1"
                            transform="matrix(1,0,0,1,253.2169952392578,244.9040069580078)">
                            <path fill="rgb(224,216,203)" fill-opacity="1"
                                d=" M-9.468999862670898,86.93099975585938 C-9.468999862670898,86.93099975585938 -10.031000137329102,106.96499633789062 -10.031000137329102,106.96499633789062 C-10.031000137329102,106.96499633789062 -10.031000137329102,-106.96499633789062 -10.031000137329102,-106.96499633789062 C-10.031000137329102,-106.96499633789062 -9.468999862670898,-87 -9.468999862670898,-87 C-9.468999862670898,-87 -9.468999862670898,86.93099975585938 -9.468999862670898,86.93099975585938z"></path>
                            <path stroke-linecap="round" stroke-linejoin="round" fill-opacity="0"
                                stroke="rgb(153,153,153)" stroke-opacity="1" stroke-width="10"
                                d=" M-9.468999862670898,86.93099975585938 C-9.468999862670898,86.93099975585938 -10.031000137329102,106.96499633789062 -10.031000137329102,106.96499633789062 C-10.031000137329102,106.96499633789062 -10.031000137329102,-106.96499633789062 -10.031000137329102,-106.96499633789062 C-10.031000137329102,-106.96499633789062 -9.468999862670898,-87 -9.468999862670898,-87 C-9.468999862670898,-87 -9.468999862670898,86.93099975585938 -9.468999862670898,86.93099975585938z"></path>
                        </g>
                        <g opacity="1"
                            transform="matrix(1,0,0,1,125.88099670410156,244.9040069580078)">
                            <path fill="url(#__lottie_element_11)" fill-opacity="1"
                                d=" M-87.48200225830078,73.55999755859375 C-87.48200225830078,73.55999755859375 87.48200225830078,73.55999755859375 87.48200225830078,73.55999755859375 C87.48200225830078,73.55999755859375 87.48200225830078,-73.55999755859375 87.48200225830078,-73.55999755859375 C87.48200225830078,-73.55999755859375 -87.48200225830078,-73.55999755859375 -87.48200225830078,-73.55999755859375 C-87.48200225830078,-73.55999755859375 -87.48200225830078,73.55999755859375 -87.48200225830078,73.55999755859375z"></path>
                            <path stroke-linecap="round" stroke-linejoin="round" fill-opacity="0"
                                stroke="rgb(153,153,153)" stroke-opacity="1" stroke-width="10"
                                d=" M-87.48200225830078,73.55999755859375 C-87.48200225830078,73.55999755859375 87.48200225830078,73.55999755859375 87.48200225830078,73.55999755859375 C87.48200225830078,73.55999755859375 87.48200225830078,-73.55999755859375 87.48200225830078,-73.55999755859375 C87.48200225830078,-73.55999755859375 -87.48200225830078,-73.55999755859375 -87.48200225830078,-73.55999755859375 C-87.48200225830078,-73.55999755859375 -87.48200225830078,73.55999755859375 -87.48200225830078,73.55999755859375z"></path>
                        </g>
                        <g opacity="1"
                            transform="matrix(1,0,0,1,125.88099670410156,244.9040069580078)">
                            <path stroke-linecap="round" stroke-linejoin="round" fill-opacity="0"
                                stroke="rgb(104,104,104)" stroke-opacity="1" stroke-width="10"
                                d=" M87.48200225830078,-73.55999755859375 C87.48200225830078,-73.55999755859375 -87.48200225830078,-73.55999755859375 -87.48200225830078,-73.55999755859375 C-87.48200225830078,-73.55999755859375 -87.48200225830078,73.55999755859375 -87.48200225830078,73.55999755859375"></path>
                        </g>
                    </g>
                    <g opacity="1" transform="matrix(1,0,0,1,206.89100646972656,335.4599914550781)">
                        <path fill="rgb(224,216,203)" fill-opacity="1"
                            d=" M5.578999996185303,0 C5.578999996185303,0 -5.578999996185303,0 -5.578999996185303,0"></path>
                        <path stroke-linecap="round" stroke-linejoin="round" fill-opacity="0"
                            stroke="rgb(153,153,153)" stroke-opacity="1" stroke-width="10"
                            d=" M5.578999996185303,0 C5.578999996185303,0 -5.578999996185303,0 -5.578999996185303,0"></path>
                    </g>
                    <g opacity="1" transform="matrix(1,0,0,1,176.63800048828125,335.4599914550781)">
                        <path fill="rgb(224,216,203)" fill-opacity="1"
                            d=" M5.578999996185303,0 C5.578999996185303,0 -5.578999996185303,0 -5.578999996185303,0"></path>
                        <path stroke-linecap="round" stroke-linejoin="round" fill-opacity="0"
                            stroke="rgb(153,153,153)" stroke-opacity="1" stroke-width="10"
                            d=" M5.578999996185303,0 C5.578999996185303,0 -5.578999996185303,0 -5.578999996185303,0"></path>
                    </g>
                </g>
            </g>
        </g>
    </g>
</svg>